<svg xmlns="http://www.w3.org/2000/svg" viewBox="0 0 64 64" fill="none">
  <defs>
    <linearGradient id="xxlink-light-left" x1="14" y1="19" x2="36" y2="41" gradientUnits="userSpaceOnUse">
      <stop stop-color="#2563EB"/>
      <stop offset="1" stop-color="#0891B2"/>
    </linearGradient>
    <linearGradient id="xxlink-light-right" x1="28" y1="23" x2="50" y2="45" gradientUnits="userSpaceOnUse">
      <stop stop-color="#16A34A"/>
      <stop offset="1" stop-color="#0F766E"/>
    </linearGradient>
  </defs>
  <path d="M23 16C17.477 16 13 20.477 13 26V30C13 35.523 17.477 40 23 40H30V34H23C20.791 34 19 32.209 19 30V26C19 23.791 20.791 22 23 22H30V16H23Z" fill="url(#xxlink-light-left)"/>
  <path d="M34 24V30H41C43.209 30 45 31.791 45 34V38C45 40.209 43.209 42 41 42H34V48H41C46.523 48 51 43.523 51 38V34C51 28.477 46.523 24 41 24H34Z" fill="url(#xxlink-light-right)"/>
  <path d="M25 43L43 25" stroke="#0F172A" stroke-width="5" stroke-linecap="round"/>
</svg>
